# xmcd
# Track frame offsets:
# 150
# 10572
# 23019
# 33966
# 45063
# 57359
# 70557
# 81204
# 92225
# 104373
# 114945
# 124693
# 139241
# 151012
# 160908
#
# Disc length: 2327 seconds
# Revision: 0
# Processed by: cddbd v1.5.2PL0 Copyright (c) Steve Scherf et al.
# Submitted via: VisiTrax 2.11.2.271 - For more info visit www.synapsa.com
#
DISCID=a609150f
DTITLE=Various Artist - Classic Country 1965-1969 Disc 1
DYEAR=1998
DGENRE=Country
TTITLE0=George Jones - Walk Through The World With Me
TTITLE1=Johnny Cash with June Carter - Jackson
TTITLE2=The Statler Brothers - Flowers On The Wall
TTITLE3=Roger Miller - King Of The Road
TTITLE4=Merle Haggard - Okie From Muskogee
TTITLE5=Kenny Rogers and The First Edition - Ruby, Don't Take Your Love To Town
TTITLE6=Johnny Cash - Daddy Sang Bass
TTITLE7=Elvis Presley With The Jordanaires - Crying In The Chapel
TTITLE8=Eddy Arnold - Make The World Go Away
TTITLE9=Waylon Jennings - Only Daddy That'll Walk The Line
TTITLE10=Loretta Lynn - Don't Come Home A-Drinkin' (With Lovin' On Your Mind)
TTITLE11=Jeannie C. Riley - Harper Valley P.T.A.
TTITLE12=Henson Cargill - Skip A Rope
TTITLE13=Merle Haggard - Mama Tried
TTITLE14=Glen Campbell - Wichita Lineman
EXTD=
EXTT0=
EXTT1=
EXTT2=
EXTT3=
EXTT4=
EXTT5=
EXTT6=
EXTT7=
EXTT8=
EXTT9=
EXTT10=
EXTT11=
EXTT12=
EXTT13=
EXTT14=
PLAYORDER=
